<svg width="17" height="16" viewBox="0 0 17 16" fill="none" xmlns="http://www.w3.org/2000/svg">
<path d="M11.7773 10.9824C11.7188 11.041 11.7188 11.0996 11.7188 11.1582V14.4688H1.40625V4.15625H8.4668C8.52539 4.15625 8.58398 4.15625 8.64258 4.09766L9.58008 3.16016C9.72656 3.01367 9.60938 2.75 9.4043 2.75H1.40625C0.615234 2.75 0 3.39453 0 4.15625V14.4688C0 15.2598 0.615234 15.875 1.40625 15.875H11.7188C12.4805 15.875 13.125 15.2598 13.125 14.4688V10.2207C13.125 10.0156 12.8613 9.89844 12.7148 10.0449L11.7773 10.9824ZM16.3477 5.09375C17.0215 4.41992 17.0215 3.33594 16.3477 2.66211L15.0879 1.40234C14.4141 0.728516 13.3301 0.728516 12.6562 1.40234L4.98047 9.07812L4.6875 11.7441C4.59961 12.5059 5.24414 13.1504 6.00586 13.0625L8.67188 12.7695L16.3477 5.09375ZM13.4766 5.97266L8.02734 11.4219L6.09375 11.6562L6.32812 9.72266L11.7773 4.27344L13.4766 5.97266ZM15.3516 3.6582C15.498 3.77539 15.498 3.95117 15.3809 4.09766L14.4727 5.00586L12.7734 3.27734L13.6523 2.39844C13.7695 2.25195 13.9746 2.25195 14.0918 2.39844L15.3516 3.6582Z" fill="#303030"/>
</svg>
