<svg width="41" height="18" viewBox="0 0 41 18" fill="none" xmlns="http://www.w3.org/2000/svg">
<path d="M29.5964 0.00303576C29.2505 0.0430245 28.942 0.147706 28.7255 0.298555C28.509 0.449404 28.3984 0.636693 28.4134 0.827278V16.9889C28.3782 17.1045 28.3901 17.2229 28.4483 17.3358C28.5064 17.4487 28.6094 17.5534 28.7501 17.6427C28.8908 17.732 29.0658 17.8037 29.263 17.8529C29.4602 17.9021 29.6749 17.9276 29.8922 17.9276C30.1095 17.9276 30.3242 17.9021 30.5214 17.8529C30.7186 17.8037 30.8936 17.732 31.0343 17.6427C31.175 17.5534 31.2779 17.4487 31.3361 17.3358C31.3942 17.2229 31.4062 17.1045 31.371 16.9889V0.827278C31.376 0.713675 31.3365 0.60078 31.2551 0.495964C31.1738 0.391148 31.0523 0.296767 30.8987 0.218983C30.745 0.1412 30.5627 0.0817625 30.3636 0.0445523C30.1645 0.00734198 29.9531 -0.00680479 29.7431 0.00303576C29.6943 0.00174429 29.6453 0.00174429 29.5964 0.00303576ZM10.6673 0.853647C10.3214 0.893636 10.0129 0.998317 9.79642 1.14917C9.5799 1.30002 9.46933 1.4873 9.48426 1.67789V16.1383C9.44913 16.2539 9.46105 16.3723 9.5192 16.4852C9.57734 16.5981 9.68033 16.7028 9.821 16.7921C9.96168 16.8814 10.1367 16.9531 10.3339 17.0023C10.5311 17.0515 10.7458 17.077 10.9631 17.077C11.1804 17.077 11.3951 17.0515 11.5923 17.0023C11.7895 16.9531 11.9645 16.8814 12.1052 16.7921C12.2459 16.7028 12.3489 16.5981 12.407 16.4852C12.4651 16.3723 12.4771 16.2539 12.4419 16.1383V1.67789C12.4469 1.56429 12.4075 1.45139 12.3261 1.34658C12.2447 1.24176 12.1232 1.14738 11.9696 1.06959C11.8159 0.991811 11.6336 0.932374 11.4345 0.895163C11.2354 0.857953 11.024 0.843806 10.814 0.853647C10.7652 0.852355 10.7162 0.852355 10.6673 0.853647ZM24.8641 3.40548C24.5183 3.44547 24.2098 3.55015 23.9932 3.701C23.7767 3.85185 23.6661 4.03914 23.6811 4.22972V13.5864C23.6452 13.7022 23.6565 13.8208 23.7143 13.934C23.772 14.0472 23.8748 14.1523 24.0155 14.2418C24.1561 14.3314 24.3313 14.4034 24.5288 14.4528C24.7263 14.5022 24.9414 14.5278 25.1591 14.5278C25.3768 14.5278 25.5919 14.5022 25.7894 14.4528C25.9869 14.4034 26.1621 14.3314 26.3028 14.2418C26.4435 14.1523 26.5462 14.0472 26.604 13.934C26.6617 13.8208 26.6731 13.7022 26.6372 13.5864V4.22972C26.6421 4.11628 26.6027 4.00354 26.5215 3.89885C26.4403 3.79416 26.3191 3.69987 26.1659 3.62211C26.0126 3.54435 25.8307 3.48488 25.6319 3.44755C25.4332 3.41023 25.2221 3.39589 25.0124 3.40548C24.9625 3.40413 24.9125 3.40413 24.8626 3.40548H24.8641ZM5.93506 4.25609C5.58917 4.29608 5.28067 4.40076 5.06415 4.55161C4.84763 4.70246 4.73706 4.88975 4.75199 5.08033V12.7358C4.7161 12.8516 4.72742 12.9702 4.78517 13.0834C4.84292 13.1966 4.94571 13.3016 5.08638 13.3912C5.22706 13.4808 5.40224 13.5528 5.59975 13.6022C5.79725 13.6516 6.01234 13.6771 6.23004 13.6771C6.44774 13.6771 6.66282 13.6516 6.86033 13.6022C7.05783 13.5528 7.23302 13.4808 7.37369 13.3912C7.51437 13.3016 7.61716 13.1966 7.6749 13.0834C7.73265 12.9702 7.74397 12.8516 7.70808 12.7358V5.08033C7.71304 4.96689 7.67364 4.85415 7.59243 4.74946C7.51123 4.64477 7.39004 4.55048 7.23677 4.47272C7.0835 4.39496 6.90157 4.33549 6.70284 4.29816C6.50411 4.26084 6.29303 4.2465 6.08334 4.25609C6.03342 4.25474 5.9834 4.25474 5.93348 4.25609H5.93506ZM15.3996 5.1067C15.0537 5.14669 14.7452 5.25137 14.5287 5.40222C14.3122 5.55307 14.2016 5.74036 14.2165 5.93094V11.8852C14.1806 12.001 14.192 12.1196 14.2497 12.2328C14.3075 12.346 14.4103 12.451 14.5509 12.5406C14.6916 12.6302 14.8668 12.7022 15.0643 12.7516C15.2618 12.801 15.4769 12.8265 15.6946 12.8265C15.9123 12.8265 16.1274 12.801 16.3249 12.7516C16.5224 12.7022 16.6976 12.6302 16.8382 12.5406C16.9789 12.451 17.0817 12.346 17.1394 12.2328C17.1972 12.1196 17.2085 12.001 17.1726 11.8852V5.93094C17.1776 5.8175 17.1382 5.70476 17.057 5.60007C16.9758 5.49538 16.8546 5.40109 16.7013 5.32333C16.548 5.24558 16.3661 5.1861 16.1674 5.14877C15.9687 5.11145 15.7576 5.09712 15.5479 5.1067C15.498 5.10535 15.4479 5.10535 15.398 5.1067H15.3996ZM34.3287 5.1067C33.9828 5.14669 33.6743 5.25137 33.4578 5.40222C33.2413 5.55307 33.1307 5.74036 33.1456 5.93094V11.8852C33.1105 12.0009 33.1224 12.1192 33.1806 12.2321C33.2387 12.345 33.3417 12.4497 33.4824 12.539C33.623 12.6283 33.7981 12.7001 33.9953 12.7493C34.1925 12.7985 34.4072 12.824 34.6245 12.824C34.8418 12.824 35.0564 12.7985 35.2537 12.7493C35.4509 12.7001 35.6259 12.6283 35.7666 12.539C35.9072 12.4497 36.0102 12.345 36.0684 12.2321C36.1265 12.1192 36.1384 12.0009 36.1033 11.8852V5.93094C36.1083 5.81734 36.0688 5.70445 35.9874 5.59963C35.906 5.49481 35.7846 5.40043 35.6309 5.32265C35.4773 5.24487 35.295 5.18543 35.0959 5.14822C34.8968 5.11101 34.6853 5.09686 34.4754 5.1067C34.4265 5.10541 34.3776 5.10541 34.3287 5.1067ZM1.20279 6.80793C0.856899 6.84791 0.548398 6.9526 0.331879 7.10344C0.115359 7.25429 0.0047826 7.44158 0.0197179 7.63217V10.184C-0.0154153 10.2996 -0.00349535 10.418 0.0546513 10.5309C0.112798 10.6438 0.21578 10.7485 0.35646 10.8378C0.497139 10.9271 0.672149 10.9989 0.86936 11.0481C1.06657 11.0973 1.28126 11.1227 1.49855 11.1227C1.71584 11.1227 1.93054 11.0973 2.12775 11.0481C2.32496 10.9989 2.49997 10.9271 2.64065 10.8378C2.78133 10.7485 2.88431 10.6438 2.94245 10.5309C3.0006 10.418 3.01252 10.2996 2.97739 10.184V7.63217C2.98239 7.51856 2.94291 7.40567 2.86152 7.30085C2.78012 7.19604 2.65865 7.10166 2.50503 7.02387C2.3514 6.94609 2.16908 6.88665 1.96997 6.84944C1.77085 6.81223 1.55943 6.79808 1.34949 6.80793C1.30009 6.80661 1.2506 6.80661 1.20121 6.80793H1.20279ZM20.1319 6.80793C19.786 6.84791 19.4775 6.9526 19.261 7.10344C19.0444 7.25429 18.9339 7.44158 18.9488 7.63217V10.184C18.9129 10.2998 18.9242 10.4184 18.982 10.5316C19.0397 10.6448 19.1425 10.7498 19.2832 10.8394C19.4239 10.929 19.5991 11.001 19.7966 11.0504C19.9941 11.0997 20.2092 11.1253 20.4269 11.1253C20.6446 11.1253 20.8596 11.0997 21.0571 11.0504C21.2547 11.001 21.4298 10.929 21.5705 10.8394C21.7112 10.7498 21.814 10.6448 21.8717 10.5316C21.9295 10.4184 21.9408 10.2998 21.9049 10.184V7.63217C21.9099 7.51872 21.8705 7.40598 21.7893 7.30129C21.708 7.1966 21.5869 7.10231 21.4336 7.02455C21.2803 6.9468 21.0984 6.88732 20.8997 6.85C20.7009 6.81267 20.4898 6.79834 20.2802 6.80793C20.2302 6.80658 20.1802 6.80658 20.1303 6.80793H20.1319ZM39.061 6.80793C38.7151 6.84791 38.4066 6.9526 38.1901 7.10344C37.9735 7.25429 37.863 7.44158 37.8779 7.63217V10.184C37.8428 10.2996 37.8547 10.418 37.9128 10.5309C37.971 10.6438 38.074 10.7485 38.2146 10.8378C38.3553 10.9271 38.5303 10.9989 38.7275 11.0481C38.9247 11.0973 39.1394 11.1227 39.3567 11.1227C39.574 11.1227 39.7887 11.0973 39.9859 11.0481C40.1831 10.9989 40.3581 10.9271 40.4988 10.8378C40.6395 10.7485 40.7425 10.6438 40.8006 10.5309C40.8588 10.418 40.8707 10.2996 40.8356 10.184V7.63217C40.8406 7.51856 40.8011 7.40567 40.7197 7.30085C40.6383 7.19604 40.5168 7.10166 40.3632 7.02387C40.2096 6.94609 40.0273 6.88665 39.8281 6.84944C39.629 6.81223 39.4176 6.79808 39.2077 6.80793C39.1588 6.80663 39.1098 6.80663 39.061 6.80793Z" fill="#A0A0A0"/>
</svg>
