<svg width="11" height="15" viewBox="0 0 11 15" fill="none" xmlns="http://www.w3.org/2000/svg">
<path d="M5.5 10.3125C7.15688 10.3125 8.5 9.05332 8.5 7.5V2.8125C8.5 1.25918 7.15688 0 5.5 0C3.84313 0 2.5 1.25918 2.5 2.8125V7.5C2.5 9.05332 3.84313 10.3125 5.5 10.3125ZM10.5 5.625H10C9.72375 5.625 9.5 5.83477 9.5 6.09375V7.5C9.5 9.69141 7.48469 11.4498 5.10031 11.2318C3.02219 11.0417 1.5 9.29033 1.5 7.33301V6.09375C1.5 5.83477 1.27625 5.625 1 5.625H0.5C0.22375 5.625 0 5.83477 0 6.09375V7.27031C0 9.7473 1.77839 11.9707 4.28868 12.5137C4.5503 12.5703 4.75 12.7936 4.75 13.0613C4.75 13.3554 4.51162 13.5938 4.21755 13.5938H3C2.72375 13.5938 2.5 13.8035 2.5 14.0625V14.5312C2.5 14.7902 2.72375 15 3 15H8C8.27625 15 8.5 14.7902 8.5 14.5312V14.0625C8.5 13.8035 8.27625 13.5938 8 13.5938H6.77636C6.48566 13.5938 6.25 13.3581 6.25 13.0674C6.25 12.8026 6.44748 12.5817 6.70653 12.5271C9.16022 12.0101 11 9.95447 11 7.5V6.09375C11 5.83477 10.7762 5.625 10.5 5.625Z" fill="url(#paint0_linear)"/>
<defs>
<linearGradient id="paint0_linear" x1="1.26786" y1="15" x2="12.7679" y2="15" gradientUnits="userSpaceOnUse">
<stop stop-color="#0A2B6B"/>
<stop offset="0.447917" stop-color="#1E6A90"/>
<stop offset="1" stop-color="#676A6E"/>
</linearGradient>
</defs>
</svg>
